<?xml version="1.0" encoding="UTF-8" standalone="no"?>
<!-- Created with Inkscape (http://www.inkscape.org/) -->

<svg
   xmlns:dc="http://purl.org/dc/elements/1.1/"
   xmlns:cc="http://creativecommons.org/ns#"
   xmlns:rdf="http://www.w3.org/1999/02/22-rdf-syntax-ns#"
   xmlns:svg="http://www.w3.org/2000/svg"
   xmlns="http://www.w3.org/2000/svg"
   xmlns:sodipodi="http://sodipodi.sourceforge.net/DTD/sodipodi-0.dtd"
   xmlns:inkscape="http://www.inkscape.org/namespaces/inkscape"
   width="129.14973mm"
   height="21.338436mm"
   viewBox="0 0 457.61717 75.608632"
   id="svg10164"
   version="1.1"
   inkscape:version="0.91 r13725"
   sodipodi:docname="2immerse-logo.svg">
  <defs
     id="defs10166" />
  <sodipodi:namedview
     id="base"
     pagecolor="#ffffff"
     bordercolor="#666666"
     borderopacity="1.0"
     inkscape:pageopacity="0.0"
     inkscape:pageshadow="2"
     inkscape:zoom="0.35"
     inkscape:cx="-134.76284"
     inkscape:cy="-162.19568"
     inkscape:document-units="px"
     inkscape:current-layer="layer1"
     showgrid="false"
     fit-margin-top="0"
     fit-margin-left="0"
     fit-margin-right="0"
     fit-margin-bottom="0"
     inkscape:window-width="1386"
     inkscape:window-height="855"
     inkscape:window-x="0"
     inkscape:window-y="1"
     inkscape:window-maximized="1" />
  <metadata
     id="metadata10169">
    <rdf:RDF>
      <cc:Work
         rdf:about="">
        <dc:format>image/svg+xml</dc:format>
        <dc:type
           rdf:resource="http://purl.org/dc/dcmitype/StillImage" />
        <dc:title></dc:title>
      </cc:Work>
    </rdf:RDF>
  </metadata>
  <g
     inkscape:label="Layer 1"
     inkscape:groupmode="layer"
     id="layer1"
     transform="translate(17.380021,-294.55789)">
    <g
       transform="translate(437.25723,95.80951)"
       id="g9859">
      <g
         transform="matrix(1.25,0,0,-1.25,-441.91207,218.88013)"
         id="g4283">
        <path
           inkscape:connector-curvature="0"
           id="path4285"
           style="fill:#999999;fill-opacity:1;fill-rule:nonzero;stroke:none"
           d="M 0,0 C -1.397,0 -2.687,-0.227 -3.836,-0.673 -4.997,-1.123 -6.007,-1.778 -6.835,-2.619 -7.661,-3.46 -8.301,-4.475 -8.738,-5.637 -9.17,-6.784 -9.39,-8.072 -9.39,-9.465 c 0,-0.424 0.345,-0.769 0.769,-0.769 l 2.56,0 c 0.212,0 0.414,0.087 0.559,0.241 0.145,0.154 0.221,0.36 0.209,0.571 -0.045,0.799 0.056,1.562 0.298,2.268 0.243,0.707 0.595,1.332 1.044,1.858 0.445,0.522 0.987,0.947 1.608,1.263 0.604,0.307 1.292,0.463 2.043,0.463 0.739,0 1.428,-0.107 2.049,-0.317 0.599,-0.203 1.129,-0.512 1.577,-0.916 0.443,-0.401 0.798,-0.897 1.054,-1.473 0.256,-0.575 0.385,-1.242 0.385,-1.985 0,-0.925 -0.161,-1.705 -0.478,-2.32 -0.331,-0.639 -0.792,-1.223 -1.37,-1.734 -0.608,-0.538 -1.326,-1.046 -2.133,-1.51 -0.844,-0.483 -1.737,-1.017 -2.731,-1.631 -0.967,-0.597 -1.969,-1.289 -2.979,-2.056 -1.026,-0.779 -2.033,-1.726 -2.992,-2.814 -0.933,-1.071 -1.547,-2.193 -1.826,-3.338 -0.264,-1.081 -0.411,-2.303 -0.436,-3.631 -0.004,-0.207 0.075,-0.406 0.22,-0.553 0.144,-0.148 0.342,-0.231 0.549,-0.231 l 17.355,0 c 0.425,0 0.769,0.344 0.769,0.769 l 0,2.033 c 0,0.425 -0.344,0.769 -0.769,0.769 l -13.934,0 c 0.048,0.234 0.112,0.456 0.194,0.664 0.173,0.444 0.403,0.856 0.685,1.226 0.294,0.384 0.63,0.749 0.998,1.083 0.383,0.347 0.784,0.682 1.192,0.994 0.618,0.475 1.332,0.934 2.123,1.365 0.833,0.455 1.678,0.929 2.536,1.42 0.866,0.497 1.724,1.033 2.552,1.593 0.861,0.583 1.642,1.256 2.321,2.001 0.693,0.761 1.259,1.643 1.682,2.623 0.429,0.999 0.646,2.152 0.646,3.429 0,1.095 -0.195,2.152 -0.579,3.14 -0.394,1.009 -0.983,1.888 -1.751,2.614 -0.762,0.72 -1.708,1.299 -2.814,1.722 C 2.697,-0.213 1.42,0 0,0" />
      </g>
      <g
         transform="matrix(1.25,0,0,-1.25,-416.83707,219.71251)"
         id="g4287">
        <path
           inkscape:connector-curvature="0"
           id="path4289"
           style="fill:#666767;fill-opacity:1;fill-rule:nonzero;stroke:none"
           d="m 0,0 -2.447,0 c -0.414,0 -0.75,-0.336 -0.75,-0.75 l 0,-25.92 c 0,-0.414 0.336,-0.75 0.75,-0.75 l 2.447,0 c 0.414,0 0.75,0.336 0.75,0.75 l 0,25.92 C 0.75,-0.336 0.414,0 0,0" />
      </g>
      <g
         transform="matrix(1.25,0,0,-1.25,-378.13707,219.71251)"
         id="g4291">
        <path
           inkscape:connector-curvature="0"
           id="path4293"
           style="fill:#666767;fill-opacity:1;fill-rule:nonzero;stroke:none"
           d="m 0,0 -3.708,0 c -0.315,0 -0.596,-0.197 -0.704,-0.493 l -7.689,-21.045 -7.824,21.049 C -20.034,-0.195 -20.314,0 -20.628,0 l -3.744,0 c -0.414,0 -0.75,-0.336 -0.75,-0.75 l 0,-25.92 c 0,-0.414 0.336,-0.75 0.75,-0.75 l 2.448,0 c 0.414,0 0.75,0.336 0.75,0.75 l 0,19.111 7.151,-19.371 c 0.109,-0.294 0.39,-0.49 0.704,-0.49 l 2.303,0 c 0.315,0 0.596,0.196 0.704,0.491 l 7.115,19.354 0,-19.095 c 0,-0.414 0.336,-0.75 0.75,-0.75 l 2.447,0 c 0.414,0 0.75,0.336 0.75,0.75 l 0,25.92 C 0.75,-0.336 0.414,0 0,0" />
      </g>
      <g
         transform="matrix(1.25,0,0,-1.25,-340.65295,219.71251)"
         id="g4295">
        <path
           inkscape:connector-curvature="0"
           id="path4297"
           style="fill:#666767;fill-opacity:1;fill-rule:nonzero;stroke:none"
           d="m 0,0 -3.708,0 c -0.315,0 -0.596,-0.197 -0.704,-0.493 l -7.689,-21.045 -7.824,21.049 C -20.034,-0.195 -20.314,0 -20.628,0 l -3.744,0 c -0.414,0 -0.75,-0.336 -0.75,-0.75 l 0,-25.92 c 0,-0.414 0.336,-0.75 0.75,-0.75 l 2.448,0 c 0.414,0 0.75,0.336 0.75,0.75 l 0,19.111 7.151,-19.371 c 0.109,-0.294 0.39,-0.49 0.704,-0.49 l 2.303,0 c 0.315,0 0.596,0.196 0.704,0.491 l 7.115,19.354 0,-19.095 c 0,-0.414 0.336,-0.75 0.75,-0.75 l 2.447,0 c 0.414,0 0.75,0.336 0.75,0.75 l 0,25.92 C 0.75,-0.336 0.414,0 0,0" />
      </g>
      <g
         transform="matrix(1.25,0,0,-1.25,-311.94207,219.71251)"
         id="g4299">
        <path
           inkscape:connector-curvature="0"
           id="path4301-4"
           style="fill:#666767;fill-opacity:1;fill-rule:nonzero;stroke:none"
           d="m 0,0 -17.244,0 c -0.414,0 -0.75,-0.336 -0.75,-0.75 l 0,-25.92 c 0,-0.414 0.336,-0.75 0.75,-0.75 l 17.603,0 c 0.415,0 0.75,0.336 0.75,0.75 l 0,2.088 c 0,0.414 -0.335,0.75 -0.75,0.75 l -14.405,0 0,8.796 12.606,0 c 0.414,0 0.75,0.336 0.75,0.75 l 0,2.089 c 0,0.414 -0.336,0.75 -0.75,0.75 l -12.606,0 0,7.859 14.046,0 c 0.414,0 0.75,0.336 0.75,0.75 l 0,2.088 C 0.75,-0.336 0.414,0 0,0" />
      </g>
      <g
         transform="matrix(1.25,0,0,-1.25,-265.95332,218.85688)"
         id="g4303">
        <path
           inkscape:connector-curvature="0"
           id="path4305"
           style="fill:#666767;fill-opacity:1;fill-rule:nonzero;stroke:none"
           d="m 0,0 c -1.517,0 -2.884,-0.208 -4.063,-0.618 -1.191,-0.414 -2.202,-0.984 -3.004,-1.694 -0.81,-0.717 -1.431,-1.555 -1.845,-2.491 -0.413,-0.931 -0.622,-1.905 -0.622,-2.895 0,-1.395 0.261,-2.577 0.776,-3.512 0.51,-0.924 1.183,-1.691 2.001,-2.28 0.792,-0.572 1.709,-1.032 2.725,-1.365 0.971,-0.319 1.975,-0.598 2.982,-0.828 0.99,-0.227 1.957,-0.461 2.9,-0.699 0.884,-0.224 1.674,-0.522 2.347,-0.886 0.629,-0.341 1.145,-0.782 1.533,-1.313 0.358,-0.491 0.54,-1.165 0.54,-2.005 0,-0.623 -0.11,-1.223 -0.327,-1.781 -0.21,-0.538 -0.54,-1.02 -0.983,-1.433 -0.448,-0.417 -1.048,-0.757 -1.783,-1.009 -0.758,-0.26 -1.681,-0.391 -2.745,-0.391 -0.918,0 -1.786,0.106 -2.581,0.317 -0.765,0.201 -1.445,0.527 -2.021,0.969 -0.572,0.435 -1.046,1.011 -1.411,1.712 -0.373,0.712 -0.605,1.603 -0.692,2.65 -0.032,0.389 -0.357,0.688 -0.748,0.688 l -2.375,0 c -0.415,0 -0.75,-0.336 -0.75,-0.75 0,-1.515 0.258,-2.859 0.767,-3.997 0.512,-1.143 1.24,-2.117 2.163,-2.895 0.915,-0.771 2.01,-1.353 3.255,-1.729 1.216,-0.367 2.549,-0.553 3.961,-0.553 3.16,0 5.667,0.721 7.451,2.143 1.836,1.464 2.767,3.538 2.767,6.166 0,1.359 -0.239,2.521 -0.711,3.453 -0.471,0.927 -1.107,1.698 -1.889,2.293 -0.757,0.573 -1.633,1.035 -2.603,1.371 -0.92,0.319 -1.883,0.599 -2.862,0.832 -0.964,0.228 -1.91,0.445 -2.838,0.65 -0.876,0.194 -1.686,0.446 -2.408,0.751 -0.681,0.287 -1.259,0.655 -1.717,1.093 -0.413,0.394 -0.67,0.917 -0.787,1.6 -0.102,0.568 -0.073,1.117 0.09,1.684 0.159,0.556 0.454,1.073 0.877,1.537 0.426,0.466 1.019,0.857 1.763,1.16 0.759,0.31 1.723,0.467 2.867,0.467 0.742,0 1.473,-0.1 2.173,-0.296 0.671,-0.189 1.277,-0.486 1.802,-0.884 0.502,-0.381 0.906,-0.884 1.199,-1.492 0.297,-0.616 0.448,-1.366 0.448,-2.23 0,-0.414 0.336,-0.75 0.75,-0.75 l 2.34,0 c 0.414,0 0.75,0.336 0.75,0.75 0,1.141 -0.199,2.237 -0.59,3.257 C 8.474,-4.2 7.871,-3.281 7.078,-2.501 6.285,-1.722 5.282,-1.103 4.097,-0.66 2.925,-0.222 1.546,0 0,0" />
      </g>
      <g
         transform="matrix(1.25,0,0,-1.25,-226.93844,219.71251)"
         id="g4307">
        <path
           inkscape:connector-curvature="0"
           id="path4309"
           style="fill:#666767;fill-opacity:1;fill-rule:nonzero;stroke:none"
           d="m 0,0 -17.244,0 c -0.414,0 -0.75,-0.336 -0.75,-0.75 l 0,-25.92 c 0,-0.414 0.336,-0.75 0.75,-0.75 l 17.603,0 c 0.415,0 0.75,0.336 0.75,0.75 l 0,2.088 c 0,0.414 -0.335,0.75 -0.75,0.75 l -14.405,0 0,8.796 12.606,0 c 0.414,0 0.75,0.336 0.75,0.75 l 0,2.089 c 0,0.414 -0.336,0.75 -0.75,0.75 l -12.606,0 0,7.859 14.046,0 c 0.414,0 0.75,0.336 0.75,0.75 l 0,2.088 C 0.75,-0.336 0.414,0 0,0" />
      </g>
      <g
         transform="matrix(1.25,0,0,-1.25,-287.84182,242.48388)"
         id="g4311">
        <path
           inkscape:connector-curvature="0"
           id="path4313"
           style="fill:#666767;fill-opacity:1;fill-rule:nonzero;stroke:none"
           d="M 0,0 C 0.042,-0.402 0.9,-8.532 0.9,-8.532 0.941,-8.94 1.299,-9.203 1.711,-9.203 l 2.491,-0.001 c 0.004,0 0.008,0.001 0.011,0.001 0.196,0.005 0.377,0.116 0.502,0.268 0.128,0.155 0.189,0.355 0.168,0.554 L 4.081,-0.672 C 4.016,0.105 3.912,0.984 3.679,1.684 3.433,2.421 3.058,3.087 2.565,3.663 2.35,3.913 2.103,4.138 1.823,4.338 c 0.953,0.586 1.694,1.26 2.212,2.013 0.744,1.082 1.121,2.533 1.121,4.312 0,2.647 -0.869,4.603 -2.584,5.815 -1.635,1.154 -3.985,1.739 -6.985,1.739 l -10.152,0 c -0.415,0 -0.75,-0.336 -0.75,-0.75 l 0,-25.884 c 0,-0.41 0.329,-0.744 0.739,-0.75 l 2.448,-0.036 c 0.004,0 0.007,0 0.011,0 0.197,0 0.386,0.078 0.526,0.216 0.143,0.141 0.224,0.333 0.224,0.534 l 0,11.023 6.954,0 c 0.565,0 1.121,-0.035 1.651,-0.103 C -2.279,2.405 -1.84,2.282 -1.458,2.102 -1.107,1.936 -0.814,1.696 -0.562,1.368 -0.309,1.04 -0.042,0.402 0,0 m -11.367,14.629 7.025,0 c 0.764,0 1.511,-0.068 2.219,-0.202 0.663,-0.126 1.256,-0.348 1.763,-0.659 C 0.122,13.473 0.495,13.08 0.781,12.566 1.065,12.057 1.209,11.38 1.209,10.555 1.209,9.771 1.068,9.099 0.789,8.559 0.504,8.011 0.129,7.572 -0.355,7.22 -0.85,6.859 -1.446,6.591 -2.126,6.424 -2.843,6.247 -3.637,6.158 -4.485,6.158 l -6.882,0 0,8.471 z" />
      </g>
      <g
         transform="matrix(1.25,0,0,-1.25,-214.33332,260.90989)"
         id="g4975">
        <path
           inkscape:connector-curvature="0"
           id="path4977"
           style="fill:#ffffff;fill-opacity:1;fill-rule:nonzero;stroke:none"
           d="m 0,0 78.25,0 c 1.077,0 1.958,0.881 1.958,1.958 l 0,44.264 c 0,1.077 -0.881,1.958 -1.958,1.958 L 0,48.18 c -1.077,0 -1.958,-0.881 -1.958,-1.958 l 0,-44.264 C -1.958,0.881 -1.077,0 0,0" />
      </g>
      <g
         transform="matrix(1.25,0,0,-1.25,-214.33357,202.52063)"
         id="g4979">
        <path
           inkscape:connector-curvature="0"
           id="path4981"
           style="fill:#f29107;fill-opacity:1;fill-rule:nonzero;stroke:none"
           d="m 0,0 c -0.265,0 -0.489,-0.224 -0.489,-0.489 l 0,-44.264 c 0,-0.266 0.224,-0.49 0.489,-0.49 l 78.25,0 c 0.266,0 0.489,0.224 0.489,0.49 l 0,44.264 C 78.739,-0.224 78.516,0 78.25,0 L 0,0 Z m 78.25,-48.18 -78.25,0 c -1.89,0 -3.427,1.537 -3.427,3.427 l 0,44.264 C -3.427,1.4 -1.89,2.938 0,2.938 l 78.25,0 c 1.89,0 3.427,-1.538 3.427,-3.427 l 0,-44.264 c 0,-1.89 -1.537,-3.427 -3.427,-3.427" />
      </g>
      <g
         transform="matrix(1.25,0,0,-1.25,-131.88107,264.56563)"
         id="g4983">
        <path
           inkscape:connector-curvature="0"
           id="path4985"
           style="fill:#ffffff;fill-opacity:1;fill-rule:nonzero;stroke:none"
           d="m 0,0 0,-4.406 c 0,-1.077 0.881,-1.958 1.958,-1.958 l 34.584,0 c 1.077,0 1.958,0.881 1.958,1.958 L 38.5,0" />
      </g>
      <g
         transform="matrix(1.25,0,0,-1.25,-86.20332,274.35701)"
         id="g4987">
        <path
           inkscape:connector-curvature="0"
           id="path4989"
           style="fill:#e20717;fill-opacity:1;fill-rule:nonzero;stroke:none"
           d="m 0,0 -34.584,0 c -1.89,0 -3.427,1.538 -3.427,3.427 l 0,4.406 2.938,0 0,-4.406 c 0,-0.265 0.223,-0.489 0.489,-0.489 L 0,2.938 c 0.266,0 0.489,0.224 0.489,0.489 l 0,4.406 2.938,0 0,-4.406 C 3.427,1.538 1.89,0 0,0" />
      </g>
      <g
         transform="matrix(1.25,0,0,-1.25,-129.43332,266.97963)"
         id="g4991">
        <path
           inkscape:connector-curvature="0"
           id="path4993"
           style="fill:#ffffff;fill-opacity:1;fill-rule:nonzero;stroke:none"
           d="m 0,0 34.584,0 c 1.077,0 1.958,0.881 1.958,1.958 l 0,19.992 c 0,1.077 -0.881,1.959 -1.958,1.959 L 0,23.909 c -1.077,0 -1.958,-0.882 -1.958,-1.959 l 0,-19.992 C -1.958,0.881 -1.077,0 0,0" />
      </g>
      <g
         transform="matrix(1.25,0,0,-1.25,-129.43332,238.92988)"
         id="g4995">
        <path
           inkscape:connector-curvature="0"
           id="path4997"
           style="fill:#e20717;fill-opacity:1;fill-rule:nonzero;stroke:none"
           d="m 0,0 c -0.266,0 -0.489,-0.224 -0.489,-0.489 l 0,-19.993 c 0,-0.265 0.223,-0.489 0.489,-0.489 l 34.584,0 c 0.266,0 0.489,0.224 0.489,0.489 l 0,19.993 C 35.073,-0.224 34.85,0 34.584,0 L 0,0 Z m 34.584,-23.909 -34.584,0 c -1.89,0 -3.427,1.538 -3.427,3.427 l 0,19.993 C -3.427,1.4 -1.89,2.938 0,2.938 l 34.584,0 c 1.89,0 3.427,-1.538 3.427,-3.427 l 0,-19.993 c 0,-1.889 -1.537,-3.427 -3.427,-3.427" />
      </g>
      <g
         transform="matrix(1.25,0,0,-1.25,-93.143695,242.73026)"
         id="g4999">
        <path
           inkscape:connector-curvature="0"
           id="path5001"
           style="fill:#ffffff;fill-opacity:1;fill-rule:nonzero;stroke:none"
           d="m 0,0 29.787,0 c 1.077,0 1.958,0.881 1.958,1.958 l 0,20.03 c 0,1.077 -0.881,1.958 -1.958,1.958 L 0,23.946 c -1.077,0 -1.958,-0.881 -1.958,-1.958 l 0,-20.03 C -1.958,0.881 -1.077,0 0,0" />
      </g>
      <g
         transform="matrix(1.25,0,0,-1.25,-93.14407,214.63388)"
         id="g5003">
        <path
           inkscape:connector-curvature="0"
           id="path5005"
           style="fill:#1f9cd8;fill-opacity:1;fill-rule:nonzero;stroke:none"
           d="m 0,0 c -0.266,0 -0.489,-0.224 -0.489,-0.489 l 0,-20.03 c 0,-0.265 0.223,-0.489 0.489,-0.489 l 29.787,0 c 0.266,0 0.489,0.224 0.489,0.489 l 0,20.03 C 30.276,-0.224 30.053,0 29.787,0 L 0,0 Z m 29.787,-23.946 -29.787,0 c -1.89,0 -3.427,1.537 -3.427,3.427 l 0,20.03 C -3.427,1.4 -1.89,2.938 0,2.938 l 29.787,0 c 1.89,0 3.427,-1.538 3.427,-3.427 l 0,-20.03 c 0,-1.89 -1.537,-3.427 -3.427,-3.427" />
      </g>
      <g
         transform="matrix(1.25,0,0,-1.25,-65.16282,239.58851)"
         id="g5007">
        <path
           inkscape:connector-curvature="0"
           id="path5009"
           style="fill:#ffffff;fill-opacity:1;fill-rule:nonzero;stroke:none"
           d="m 0,0 0,-20.083 c 0,-1.077 0.881,-1.958 1.958,-1.958 l 10.313,0 c 1.077,0 1.958,0.881 1.958,1.958 l 0,20.083 c 0,1.077 -0.881,1.958 -1.958,1.958 l -10.313,0 C 0.881,1.958 0,1.077 0,0" />
      </g>
      <g
         transform="matrix(1.25,0,0,-1.25,-62.71482,238.97701)"
         id="g5011">
        <path
           inkscape:connector-curvature="0"
           id="path5013"
           style="fill:#009641;fill-opacity:1;fill-rule:nonzero;stroke:none"
           d="m 0,0 c -0.266,0 -0.489,-0.224 -0.489,-0.489 l 0,-20.084 c 0,-0.265 0.223,-0.489 0.489,-0.489 l 10.313,0 c 0.266,0 0.489,0.224 0.489,0.489 l 0,20.084 C 10.802,-0.224 10.579,0 10.313,0 L 0,0 Z m 10.313,-23.999 -10.313,0 c -1.89,0 -3.427,1.537 -3.427,3.426 l 0,20.084 C -3.427,1.4 -1.89,2.938 0,2.938 l 10.313,0 c 1.89,0 3.427,-1.538 3.427,-3.427 l 0,-20.084 c 0,-1.889 -1.537,-3.426 -3.427,-3.426" />
      </g>
      <path
         inkscape:connector-curvature="0"
         id="path5015"
         style="fill:#cdcccc;fill-opacity:1;fill-rule:nonzero;stroke:none"
         d="m -130.06307,208.57101 -4.04125,0 0,-4.04 4.04125,0 0,4.04 z" />
      <path
         inkscape:connector-curvature="0"
         id="path5017"
         style="fill:#cdcccc;fill-opacity:1;fill-rule:nonzero;stroke:none"
         d="m -124.00057,208.57101 -4.04125,0 0,-4.04 4.04125,0 0,4.04 z" />
      <path
         inkscape:connector-curvature="0"
         id="path5019"
         style="fill:#cdcccc;fill-opacity:1;fill-rule:nonzero;stroke:none"
         d="m -117.93807,208.57101 -4.04125,0 0,-4.04 4.04125,0 0,4.04 z" />
      <path
         inkscape:connector-curvature="0"
         id="path5021"
         style="fill:#cdcccc;fill-opacity:1;fill-rule:nonzero;stroke:none"
         d="m -166.43932,214.63226 -4.04125,0 0,-4.04 4.04125,0 0,4.04 z" />
      <path
         inkscape:connector-curvature="0"
         id="path5023"
         style="fill:#cdcccc;fill-opacity:1;fill-rule:nonzero;stroke:none"
         d="m -160.37682,214.63226 -4.04125,0 0,-4.04 4.04125,0 0,4.04 z" />
      <path
         inkscape:connector-curvature="0"
         id="path5025"
         style="fill:#cdcccc;fill-opacity:1;fill-rule:nonzero;stroke:none"
         d="m -154.31432,214.63226 -4.04125,0 0,-4.04 4.04125,0 0,4.04 z" />
      <path
         inkscape:connector-curvature="0"
         id="path5027"
         style="fill:#cdcccc;fill-opacity:1;fill-rule:nonzero;stroke:none"
         d="m -148.25182,214.63226 -4.04125,0 0,-4.04 4.04125,0 0,4.04 z" />
      <path
         inkscape:connector-curvature="0"
         id="path5029"
         style="fill:#cdcccc;fill-opacity:1;fill-rule:nonzero;stroke:none"
         d="m -208.87807,220.69226 -4.04125,0 0,-4.04 4.04125,0 0,4.04 z" />
      <path
         inkscape:connector-curvature="0"
         id="path5031"
         style="fill:#cdcccc;fill-opacity:1;fill-rule:nonzero;stroke:none"
         d="m -202.81557,220.69226 -4.04125,0 0,-4.04 4.04125,0 0,4.04 z" />
      <path
         inkscape:connector-curvature="0"
         id="path5033"
         style="fill:#cdcccc;fill-opacity:1;fill-rule:nonzero;stroke:none"
         d="m -172.50182,214.63226 -4.04125,0 0,-4.04 4.04125,0 0,4.04 z" />
      <path
         inkscape:connector-curvature="0"
         id="path5035"
         style="fill:#cdcccc;fill-opacity:1;fill-rule:nonzero;stroke:none"
         d="m -166.43932,220.69226 -4.04125,0 0,-4.04 4.04125,0 0,4.04 z" />
      <path
         inkscape:connector-curvature="0"
         id="path5037"
         style="fill:#cdcccc;fill-opacity:1;fill-rule:nonzero;stroke:none"
         d="m -160.37682,220.69226 -4.04125,0 0,-4.04 4.04125,0 0,4.04 z" />
      <path
         inkscape:connector-curvature="0"
         id="path5039"
         style="fill:#cdcccc;fill-opacity:1;fill-rule:nonzero;stroke:none"
         d="m -154.31432,220.69226 -4.04125,0 0,-4.04 4.04125,0 0,4.04 z" />
      <path
         inkscape:connector-curvature="0"
         id="path5041"
         style="fill:#cdcccc;fill-opacity:1;fill-rule:nonzero;stroke:none"
         d="m -148.25182,220.69226 -4.04125,0 0,-4.04 4.04125,0 0,4.04 z" />
      <path
         inkscape:connector-curvature="0"
         id="path5043"
         style="fill:#cdcccc;fill-opacity:1;fill-rule:nonzero;stroke:none"
         d="m -142.18932,220.69226 -4.04125,0 0,-4.04 4.04125,0 0,4.04 z" />
      <path
         inkscape:connector-curvature="0"
         id="path5045"
         style="fill:#cdcccc;fill-opacity:1;fill-rule:nonzero;stroke:none"
         d="m -136.12682,220.69226 -4.04125,0 0,-4.04 4.04125,0 0,4.04 z" />
      <path
         inkscape:connector-curvature="0"
         id="path5047"
         style="fill:#cdcccc;fill-opacity:1;fill-rule:nonzero;stroke:none"
         d="m -130.06307,220.69226 -4.04125,0 0,-4.04 4.04125,0 0,4.04 z" />
      <path
         inkscape:connector-curvature="0"
         id="path5049"
         style="fill:#cdcccc;fill-opacity:1;fill-rule:nonzero;stroke:none"
         d="m -124.00057,220.69226 -4.04125,0 0,-4.04 4.04125,0 0,4.04 z" />
      <path
         inkscape:connector-curvature="0"
         id="path5051"
         style="fill:#cdcccc;fill-opacity:1;fill-rule:nonzero;stroke:none"
         d="m -196.75307,220.69226 -4.04125,0 0,-4.04 4.04125,0 0,4.04 z" />
      <path
         inkscape:connector-curvature="0"
         id="path5053"
         style="fill:#cdcccc;fill-opacity:1;fill-rule:nonzero;stroke:none"
         d="m -190.69057,220.69226 -4.04125,0 0,-4.04 4.04125,0 0,4.04 z" />
      <path
         inkscape:connector-curvature="0"
         id="path5055"
         style="fill:#cdcccc;fill-opacity:1;fill-rule:nonzero;stroke:none"
         d="m -184.62807,220.69226 -4.04125,0 0,-4.04 4.04125,0 0,4.04 z" />
      <path
         inkscape:connector-curvature="0"
         id="path5057"
         style="fill:#cdcccc;fill-opacity:1;fill-rule:nonzero;stroke:none"
         d="m -178.56557,220.69226 -4.04125,0 0,-4.04 4.04125,0 0,4.04 z" />
      <path
         inkscape:connector-curvature="0"
         id="path5059"
         style="fill:#cdcccc;fill-opacity:1;fill-rule:nonzero;stroke:none"
         d="m -172.50182,220.69226 -4.04125,0 0,-4.04 4.04125,0 0,4.04 z" />
      <path
         inkscape:connector-curvature="0"
         id="path5061"
         style="fill:#cdcccc;fill-opacity:1;fill-rule:nonzero;stroke:none"
         d="m -166.43932,226.75226 -4.04125,0 0,-4.04 4.04125,0 0,4.04 z" />
      <path
         inkscape:connector-curvature="0"
         id="path5063"
         style="fill:#cdcccc;fill-opacity:1;fill-rule:nonzero;stroke:none"
         d="m -160.37682,226.75226 -4.04125,0 0,-4.04 4.04125,0 0,4.04 z" />
      <path
         inkscape:connector-curvature="0"
         id="path5065"
         style="fill:#cdcccc;fill-opacity:1;fill-rule:nonzero;stroke:none"
         d="m -154.31432,226.75226 -4.04125,0 0,-4.04 4.04125,0 0,4.04 z" />
      <path
         inkscape:connector-curvature="0"
         id="path5067"
         style="fill:#cdcccc;fill-opacity:1;fill-rule:nonzero;stroke:none"
         d="m -148.25182,226.75226 -4.04125,0 0,-4.04 4.04125,0 0,4.04 z" />
      <path
         inkscape:connector-curvature="0"
         id="path5069"
         style="fill:#cdcccc;fill-opacity:1;fill-rule:nonzero;stroke:none"
         d="m -142.18932,226.75226 -4.04125,0 0,-4.04 4.04125,0 0,4.04 z" />
      <path
         inkscape:connector-curvature="0"
         id="path5071"
         style="fill:#cdcccc;fill-opacity:1;fill-rule:nonzero;stroke:none"
         d="m -184.62807,226.75226 -4.04125,0 0,-4.04 4.04125,0 0,4.04 z" />
      <path
         inkscape:connector-curvature="0"
         id="path5073"
         style="fill:#cdcccc;fill-opacity:1;fill-rule:nonzero;stroke:none"
         d="m -178.56557,226.75226 -4.04125,0 0,-4.04 4.04125,0 0,4.04 z" />
      <path
         inkscape:connector-curvature="0"
         id="path5075"
         style="fill:#cdcccc;fill-opacity:1;fill-rule:nonzero;stroke:none"
         d="m -172.50182,226.75226 -4.04125,0 0,-4.04 4.04125,0 0,4.04 z" />
      <path
         inkscape:connector-curvature="0"
         id="path5077"
         style="fill:#cdcccc;fill-opacity:1;fill-rule:nonzero;stroke:none"
         d="m -166.43932,232.81351 -4.04125,0 0,-4.04 4.04125,0 0,4.04 z" />
      <path
         inkscape:connector-curvature="0"
         id="path5079"
         style="fill:#cdcccc;fill-opacity:1;fill-rule:nonzero;stroke:none"
         d="m -160.37682,232.81351 -4.04125,0 0,-4.04 4.04125,0 0,4.04 z" />
      <path
         inkscape:connector-curvature="0"
         id="path5081"
         style="fill:#cdcccc;fill-opacity:1;fill-rule:nonzero;stroke:none"
         d="m -202.81557,232.81351 -4.04125,0 0,-4.04 4.04125,0 0,4.04 z" />
      <path
         inkscape:connector-curvature="0"
         id="path5083"
         style="fill:#cdcccc;fill-opacity:1;fill-rule:nonzero;stroke:none"
         d="m -196.75307,232.81351 -4.04125,0 0,-4.04 4.04125,0 0,4.04 z" />
      <path
         inkscape:connector-curvature="0"
         id="path5085"
         style="fill:#cdcccc;fill-opacity:1;fill-rule:nonzero;stroke:none"
         d="m -190.69057,232.81351 -4.04125,0 0,-4.04 4.04125,0 0,4.04 z" />
      <path
         inkscape:connector-curvature="0"
         id="path5087"
         style="fill:#cdcccc;fill-opacity:1;fill-rule:nonzero;stroke:none"
         d="m -184.62807,232.81351 -4.04125,0 0,-4.04 4.04125,0 0,4.04 z" />
      <path
         inkscape:connector-curvature="0"
         id="path5089"
         style="fill:#cdcccc;fill-opacity:1;fill-rule:nonzero;stroke:none"
         d="m -178.56557,232.81351 -4.04125,0 0,-4.04 4.04125,0 0,4.04 z" />
      <path
         inkscape:connector-curvature="0"
         id="path5091"
         style="fill:#cdcccc;fill-opacity:1;fill-rule:nonzero;stroke:none"
         d="m -172.50182,232.81351 -4.04125,0 0,-4.04 4.04125,0 0,4.04 z" />
      <path
         inkscape:connector-curvature="0"
         id="path5093"
         style="fill:#cdcccc;fill-opacity:1;fill-rule:nonzero;stroke:none"
         d="m -166.43932,238.87351 -4.04125,0 0,-4.04 4.04125,0 0,4.04 z" />
      <path
         inkscape:connector-curvature="0"
         id="path5095"
         style="fill:#cdcccc;fill-opacity:1;fill-rule:nonzero;stroke:none"
         d="m -160.37682,238.87351 -4.04125,0 0,-4.04 4.04125,0 0,4.04 z" />
      <path
         inkscape:connector-curvature="0"
         id="path5097"
         style="fill:#cdcccc;fill-opacity:1;fill-rule:nonzero;stroke:none"
         d="m -154.31432,238.87351 -4.04125,0 0,-4.04 4.04125,0 0,4.04 z" />
      <path
         inkscape:connector-curvature="0"
         id="path5099"
         style="fill:#cdcccc;fill-opacity:1;fill-rule:nonzero;stroke:none"
         d="m -148.25182,238.87351 -4.04125,0 0,-4.04 4.04125,0 0,4.04 z" />
      <path
         inkscape:connector-curvature="0"
         id="path5101"
         style="fill:#cdcccc;fill-opacity:1;fill-rule:nonzero;stroke:none"
         d="m -142.18932,238.87351 -4.04125,0 0,-4.04 4.04125,0 0,4.04 z" />
      <path
         inkscape:connector-curvature="0"
         id="path5103"
         style="fill:#cdcccc;fill-opacity:1;fill-rule:nonzero;stroke:none"
         d="m -208.87807,238.87351 -4.04125,0 0,-4.04 4.04125,0 0,4.04 z" />
      <path
         inkscape:connector-curvature="0"
         id="path5105"
         style="fill:#cdcccc;fill-opacity:1;fill-rule:nonzero;stroke:none"
         d="m -202.81557,238.87351 -4.04125,0 0,-4.04 4.04125,0 0,4.04 z" />
      <path
         inkscape:connector-curvature="0"
         id="path5107"
         style="fill:#cdcccc;fill-opacity:1;fill-rule:nonzero;stroke:none"
         d="m -196.75307,238.87351 -4.04125,0 0,-4.04 4.04125,0 0,4.04 z" />
      <path
         inkscape:connector-curvature="0"
         id="path5109"
         style="fill:#cdcccc;fill-opacity:1;fill-rule:nonzero;stroke:none"
         d="m -190.69057,238.87351 -4.04125,0 0,-4.04 4.04125,0 0,4.04 z" />
      <path
         inkscape:connector-curvature="0"
         id="path5111"
         style="fill:#cdcccc;fill-opacity:1;fill-rule:nonzero;stroke:none"
         d="m -124.00057,250.99476 -4.04125,0 0,-4.04 4.04125,0 0,4.04 z" />
      <path
         inkscape:connector-curvature="0"
         id="path5113"
         style="fill:#cdcccc;fill-opacity:1;fill-rule:nonzero;stroke:none"
         d="m -124.00057,257.05601 -4.04125,0 0,-4.04 4.04125,0 0,4.04 z" />
      <path
         inkscape:connector-curvature="0"
         id="path5115"
         style="fill:#cdcccc;fill-opacity:1;fill-rule:nonzero;stroke:none"
         d="m -117.93807,244.93476 -4.04125,0 0,-4.04 4.04125,0 0,4.04 z" />
      <path
         inkscape:connector-curvature="0"
         id="path5117"
         style="fill:#cdcccc;fill-opacity:1;fill-rule:nonzero;stroke:none"
         d="m -111.87557,244.93476 -4.04125,0 0,-4.04 4.04125,0 0,4.04 z" />
      <path
         inkscape:connector-curvature="0"
         id="path5119"
         style="fill:#cdcccc;fill-opacity:1;fill-rule:nonzero;stroke:none"
         d="m -166.43932,244.93476 -4.04125,0 0,-4.04 4.04125,0 0,4.04 z" />
      <path
         inkscape:connector-curvature="0"
         id="path5121"
         style="fill:#cdcccc;fill-opacity:1;fill-rule:nonzero;stroke:none"
         d="m -160.37682,244.93476 -4.04125,0 0,-4.04 4.04125,0 0,4.04 z" />
      <path
         inkscape:connector-curvature="0"
         id="path5123"
         style="fill:#cdcccc;fill-opacity:1;fill-rule:nonzero;stroke:none"
         d="m -154.31432,244.93476 -4.04125,0 0,-4.04 4.04125,0 0,4.04 z" />
      <path
         inkscape:connector-curvature="0"
         id="path5125"
         style="fill:#cdcccc;fill-opacity:1;fill-rule:nonzero;stroke:none"
         d="m -148.25182,244.93476 -4.04125,0 0,-4.04 4.04125,0 0,4.04 z" />
      <path
         inkscape:connector-curvature="0"
         id="path5127"
         style="fill:#cdcccc;fill-opacity:1;fill-rule:nonzero;stroke:none"
         d="m -178.56557,244.93476 -4.04125,0 0,-4.04 4.04125,0 0,4.04 z" />
      <path
         inkscape:connector-curvature="0"
         id="path5129"
         style="fill:#cdcccc;fill-opacity:1;fill-rule:nonzero;stroke:none"
         d="m -172.50182,244.93476 -4.04125,0 0,-4.04 4.04125,0 0,4.04 z" />
      <path
         inkscape:connector-curvature="0"
         id="path5131"
         style="fill:#cdcccc;fill-opacity:1;fill-rule:nonzero;stroke:none"
         d="m -117.93807,250.99476 -4.04125,0 0,-4.04 4.04125,0 0,4.04 z" />
      <path
         inkscape:connector-curvature="0"
         id="path5133"
         style="fill:#cdcccc;fill-opacity:1;fill-rule:nonzero;stroke:none"
         d="m -111.87557,250.99476 -4.04125,0 0,-4.04 4.04125,0 0,4.04 z" />
      <path
         inkscape:connector-curvature="0"
         id="path5135"
         style="fill:#cdcccc;fill-opacity:1;fill-rule:nonzero;stroke:none"
         d="m -117.93807,257.05601 -4.04125,0 0,-4.04 4.04125,0 0,4.04 z" />
      <path
         inkscape:connector-curvature="0"
         id="path5137"
         style="fill:#cdcccc;fill-opacity:1;fill-rule:nonzero;stroke:none"
         d="m -111.87557,257.05601 -4.04125,0 0,-4.04 4.04125,0 0,4.04 z" />
      <path
         inkscape:connector-curvature="0"
         id="path5139"
         style="fill:#cdcccc;fill-opacity:1;fill-rule:nonzero;stroke:none"
         d="m -105.81307,250.99476 -4.04125,0 0,-4.04 4.04125,0 0,4.04 z" />
      <path
         inkscape:connector-curvature="0"
         id="path5141"
         style="fill:#cdcccc;fill-opacity:1;fill-rule:nonzero;stroke:none"
         d="m -208.87807,250.99476 -4.04125,0 0,-4.04 4.04125,0 0,4.04 z" />
      <path
         inkscape:connector-curvature="0"
         id="path5143"
         style="fill:#cdcccc;fill-opacity:1;fill-rule:nonzero;stroke:none"
         d="m -202.81557,250.99476 -4.04125,0 0,-4.04 4.04125,0 0,4.04 z" />
      <path
         inkscape:connector-curvature="0"
         id="path5145"
         style="fill:#cdcccc;fill-opacity:1;fill-rule:nonzero;stroke:none"
         d="m -196.75307,250.99476 -4.04125,0 0,-4.04 4.04125,0 0,4.04 z" />
      <path
         inkscape:connector-curvature="0"
         id="path5147"
         style="fill:#cdcccc;fill-opacity:1;fill-rule:nonzero;stroke:none"
         d="m -190.69057,250.99476 -4.04125,0 0,-4.04 4.04125,0 0,4.04 z" />
      <path
         inkscape:connector-curvature="0"
         id="path5149"
         style="fill:#cdcccc;fill-opacity:1;fill-rule:nonzero;stroke:none"
         d="m -184.62807,250.99476 -4.04125,0 0,-4.04 4.04125,0 0,4.04 z" />
      <path
         inkscape:connector-curvature="0"
         id="path5151"
         style="fill:#cdcccc;fill-opacity:1;fill-rule:nonzero;stroke:none"
         d="m -178.56557,250.99476 -4.04125,0 0,-4.04 4.04125,0 0,4.04 z" />
      <path
         inkscape:connector-curvature="0"
         id="path5153"
         style="fill:#cdcccc;fill-opacity:1;fill-rule:nonzero;stroke:none"
         d="m -172.50182,250.99476 -4.04125,0 0,-4.04 4.04125,0 0,4.04 z" />
      <path
         inkscape:connector-curvature="0"
         id="path5155"
         style="fill:#cdcccc;fill-opacity:1;fill-rule:nonzero;stroke:none"
         d="m -105.81307,257.05601 -4.04125,0 0,-4.04 4.04125,0 0,4.04 z" />
      <path
         inkscape:connector-curvature="0"
         id="path5157"
         style="fill:#cdcccc;fill-opacity:1;fill-rule:nonzero;stroke:none"
         d="m -99.75057,257.05601 -4.04125,0 0,-4.04 4.04125,0 0,4.04 z" />
      <path
         inkscape:connector-curvature="0"
         id="path5159"
         style="fill:#cdcccc;fill-opacity:1;fill-rule:nonzero;stroke:none"
         d="m -111.87557,263.11601 -4.04125,0 0,-4.04 4.04125,0 0,4.04 z" />
      <path
         inkscape:connector-curvature="0"
         id="path5161"
         style="fill:#cdcccc;fill-opacity:1;fill-rule:nonzero;stroke:none"
         d="m -105.81307,263.11601 -4.04125,0 0,-4.04 4.04125,0 0,4.04 z" />
      <path
         inkscape:connector-curvature="0"
         id="path5163"
         style="fill:#cdcccc;fill-opacity:1;fill-rule:nonzero;stroke:none"
         d="m -99.75057,263.11601 -4.04125,0 0,-4.04 4.04125,0 0,4.04 z" />
      <path
         inkscape:connector-curvature="0"
         id="path5165"
         style="fill:#cdcccc;fill-opacity:1;fill-rule:nonzero;stroke:none"
         d="m -166.43932,257.05601 -4.04125,0 0,-4.04 4.04125,0 0,4.04 z" />
      <path
         inkscape:connector-curvature="0"
         id="path5167"
         style="fill:#cdcccc;fill-opacity:1;fill-rule:nonzero;stroke:none"
         d="m -160.37682,257.05601 -4.04125,0 0,-4.04 4.04125,0 0,4.04 z" />
      <path
         inkscape:connector-curvature="0"
         id="path5169"
         style="fill:#cdcccc;fill-opacity:1;fill-rule:nonzero;stroke:none"
         d="m -154.31432,257.05601 -4.04125,0 0,-4.04 4.04125,0 0,4.04 z" />
      <path
         inkscape:connector-curvature="0"
         id="path5171"
         style="fill:#cdcccc;fill-opacity:1;fill-rule:nonzero;stroke:none"
         d="m -87.65932,220.69226 -4.04125,0 0,-4.04 4.04125,0 0,4.04 z" />
      <path
         inkscape:connector-curvature="0"
         id="path5173"
         style="fill:#cdcccc;fill-opacity:1;fill-rule:nonzero;stroke:none"
         d="m -81.59682,220.69226 -4.04125,0 0,-4.04 4.04125,0 0,4.04 z" />
      <path
         inkscape:connector-curvature="0"
         id="path5175"
         style="fill:#cdcccc;fill-opacity:1;fill-rule:nonzero;stroke:none"
         d="m -75.53307,220.69226 -4.04125,0 0,-4.04 4.04125,0 0,4.04 z" />
      <path
         inkscape:connector-curvature="0"
         id="path5177"
         style="fill:#cdcccc;fill-opacity:1;fill-rule:nonzero;stroke:none"
         d="m -69.47057,220.69226 -4.04125,0 0,-4.04 4.04125,0 0,4.04 z" />
      <path
         inkscape:connector-curvature="0"
         id="path5179"
         style="fill:#cdcccc;fill-opacity:1;fill-rule:nonzero;stroke:none"
         d="m -81.59682,232.81351 -4.04125,0 0,-4.04 4.04125,0 0,4.04 z" />
      <path
         inkscape:connector-curvature="0"
         id="path5181"
         style="fill:#cdcccc;fill-opacity:1;fill-rule:nonzero;stroke:none"
         d="m -75.53307,232.81351 -4.04125,0 0,-4.04 4.04125,0 0,4.04 z" />
      <path
         inkscape:connector-curvature="0"
         id="path5183"
         style="fill:#cdcccc;fill-opacity:1;fill-rule:nonzero;stroke:none"
         d="m -93.68682,263.11601 -4.04125,0 0,-4.04 4.04125,0 0,4.04 z" />
      <path
         inkscape:connector-curvature="0"
         id="path5185"
         style="fill:#cdcccc;fill-opacity:1;fill-rule:nonzero;stroke:none"
         d="m -87.62432,263.11601 -4.04125,0 0,-4.04 4.04125,0 0,4.04 z" />
      <path
         inkscape:connector-curvature="0"
         id="path5187"
         style="fill:#cdcccc;fill-opacity:1;fill-rule:nonzero;stroke:none"
         d="m -75.53307,226.75226 -4.04125,0 0,-4.04 4.04125,0 0,4.04 z" />
      <path
         inkscape:connector-curvature="0"
         id="path5189"
         style="fill:#cdcccc;fill-opacity:1;fill-rule:nonzero;stroke:none"
         d="m -69.47057,226.75226 -4.04125,0 0,-4.04 4.04125,0 0,4.04 z" />
      <path
         inkscape:connector-curvature="0"
         id="path5191"
         style="fill:#cdcccc;fill-opacity:1;fill-rule:nonzero;stroke:none"
         d="m -63.40807,226.75226 -4.04125,0 0,-4.04 4.04125,0 0,4.04 z" />
      <path
         inkscape:connector-curvature="0"
         id="path5193"
         style="fill:#cdcccc;fill-opacity:1;fill-rule:nonzero;stroke:none"
         d="m -57.34557,232.81351 -4.04125,0 0,-4.04 4.04125,0 0,4.04 z" />
      <path
         inkscape:connector-curvature="0"
         id="path5195"
         style="fill:#cdcccc;fill-opacity:1;fill-rule:nonzero;stroke:none"
         d="m -57.34557,244.93476 -4.04125,0 0,-4.04 4.04125,0 0,4.04 z" />
      <path
         inkscape:connector-curvature="0"
         id="path5197"
         style="fill:#cdcccc;fill-opacity:1;fill-rule:nonzero;stroke:none"
         d="m -51.28307,244.93476 -4.04125,0 0,-4.04 4.04125,0 0,4.04 z" />
      <path
         inkscape:connector-curvature="0"
         id="path5199"
         style="fill:#cdcccc;fill-opacity:1;fill-rule:nonzero;stroke:none"
         d="m -57.34557,250.99476 -4.04125,0 0,-4.04 4.04125,0 0,4.04 z" />
      <path
         inkscape:connector-curvature="0"
         id="path5201"
         style="fill:#cdcccc;fill-opacity:1;fill-rule:nonzero;stroke:none"
         d="m -57.34557,263.11601 -4.04125,0 0,-4.04 4.04125,0 0,4.04 z" />
      <g
         transform="matrix(1.25,0,0,-1.25,-2.67232,200.62301)"
         id="g5203">
        <path
           inkscape:connector-curvature="0"
           id="path5205"
           style="fill:#ffffff;fill-opacity:1;fill-rule:nonzero;stroke:none"
           d="m 0,0 -24.637,0 -3.049,0 c -1.662,0 -3.021,-1.36 -3.021,-3.021 l 0,-13.125 c 0,-1.661 1.359,-3.021 3.021,-3.021 l 3.049,0 5.95,0 c 0,2.675 2.169,4.844 4.844,4.844 2.675,0 4.844,-2.169 4.844,-4.844 l 8.999,0 c 1.662,0 3.021,1.36 3.021,3.021 l 0,13.125 C 3.021,-1.36 1.662,0 0,0" />
      </g>
      <g
         transform="matrix(1.25,0,0,-1.25,-12.27007,222.70713)"
         id="g5207">
        <path
           inkscape:connector-curvature="0"
           id="path5209"
           style="fill:#8874b3;fill-opacity:1;fill-rule:nonzero;stroke:none"
           d="M 0,0 7.678,0 C 8.517,0 9.2,0.683 9.2,1.521 l 0,13.125 c 0,0.839 -0.683,1.521 -1.522,1.521 l -27.686,0 c -0.839,0 -1.521,-0.682 -1.521,-1.521 l 0,-13.125 C -21.529,0.683 -20.847,0 -20.008,0 l 7.678,0 c 0.676,2.777 3.184,4.844 6.165,4.844 C -3.183,4.844 -0.675,2.777 0,0 m 7.678,-3 -8.999,0 c -0.828,0 -1.5,0.671 -1.5,1.5 0,1.844 -1.5,3.344 -3.344,3.344 -1.844,0 -3.344,-1.5 -3.344,-3.344 0,-0.829 -0.671,-1.5 -1.5,-1.5 l -8.999,0 c -2.493,0 -4.521,2.028 -4.521,4.521 l 0,13.125 c 0,2.493 2.028,4.521 4.521,4.521 l 27.686,0 c 2.493,0 4.522,-2.028 4.522,-4.521 l 0,-13.125 C 12.2,-0.972 10.171,-3 7.678,-3" />
      </g>
      <path
         inkscape:connector-curvature="0"
         id="path5211"
         style="fill:#cdcccc;fill-opacity:1;fill-rule:nonzero;stroke:none"
         d="m -27.03182,208.57101 -4.04125,0 0,-4.04 4.04125,0 0,4.04 z" />
      <path
         inkscape:connector-curvature="0"
         id="path5213"
         style="fill:#cdcccc;fill-opacity:1;fill-rule:nonzero;stroke:none"
         d="m -20.96932,208.57101 -4.04125,0 0,-4.04 4.04125,0 0,4.04 z" />
      <path
         inkscape:connector-curvature="0"
         id="path5215"
         style="fill:#cdcccc;fill-opacity:1;fill-rule:nonzero;stroke:none"
         d="m -14.90682,208.57101 -4.04125,0 0,-4.04 4.04125,0 0,4.04 z" />
      <path
         inkscape:connector-curvature="0"
         id="path5217"
         style="fill:#cdcccc;fill-opacity:1;fill-rule:nonzero;stroke:none"
         d="m -8.84432,208.57101 -4.04125,0 0,-4.04 4.04125,0 0,4.04 z" />
      <path
         inkscape:connector-curvature="0"
         id="path5219"
         style="fill:#cdcccc;fill-opacity:1;fill-rule:nonzero;stroke:none"
         d="m -33.09432,208.57101 -4.04125,0 0,-4.04 4.04125,0 0,4.04 z" />
      <path
         inkscape:connector-curvature="0"
         id="path5221"
         style="fill:#cdcccc;fill-opacity:1;fill-rule:nonzero;stroke:none"
         d="m -27.03182,214.63226 -4.04125,0 0,-4.04 4.04125,0 0,4.04 z" />
      <path
         inkscape:connector-curvature="0"
         id="path5223"
         style="fill:#cdcccc;fill-opacity:1;fill-rule:nonzero;stroke:none"
         d="m -8.84432,214.63226 -4.04125,0 0,-4.04 4.04125,0 0,4.04 z" />
      <path
         inkscape:connector-curvature="0"
         id="path5225"
         style="fill:#cdcccc;fill-opacity:1;fill-rule:nonzero;stroke:none"
         d="m -2.78182,214.63226 -4.04125,0 0,-4.04 4.04125,0 0,4.04 z" />
      <path
         inkscape:connector-curvature="0"
         id="path5227"
         style="fill:#cdcccc;fill-opacity:1;fill-rule:nonzero;stroke:none"
         d="m -33.09432,214.63226 -4.04125,0 0,-4.04 4.04125,0 0,4.04 z" />
      <path
         inkscape:connector-curvature="0"
         id="path5229"
         style="fill:#cdcccc;fill-opacity:1;fill-rule:nonzero;stroke:none"
         d="m -33.09432,220.69226 -4.04125,0 0,-4.04 4.04125,0 0,4.04 z" />
      <path
         inkscape:connector-curvature="0"
         id="path5231"
         style="fill:#cdcccc;fill-opacity:1;fill-rule:nonzero;stroke:none"
         d="m -81.59682,226.75226 -4.04125,0 0,-4.04 4.04125,0 0,4.04 z" />
      <path
         inkscape:connector-curvature="0"
         id="path5233"
         style="fill:#cdcccc;fill-opacity:1;fill-rule:nonzero;stroke:none"
         d="m -87.65932,232.81351 -4.04125,0 0,-4.04 4.04125,0 0,4.04 z" />
      <path
         inkscape:connector-curvature="0"
         id="path5235"
         style="fill:#cdcccc;fill-opacity:1;fill-rule:nonzero;stroke:none"
         d="m -87.65932,238.87351 -4.04125,0 0,-4.04 4.04125,0 0,4.04 z" />
    </g>
  </g>
</svg>
