<?xml version="1.0" encoding="UTF-8" standalone="no"?>
<svg
   xmlns:dc="http://purl.org/dc/elements/1.1/"
   xmlns:cc="http://creativecommons.org/ns#"
   xmlns:rdf="http://www.w3.org/1999/02/22-rdf-syntax-ns#"
   xmlns:svg="http://www.w3.org/2000/svg"
   xmlns="http://www.w3.org/2000/svg"
   version="1.1"
   id="svg9578"
   viewBox="0 0 455.85352 275.91517"
   height="77.869392mm"
   width="128.65199mm">
  <defs
     id="defs9580" />
  <metadata
     id="metadata9583">
    <rdf:RDF>
      <cc:Work
         rdf:about="">
        <dc:format>image/svg+xml</dc:format>
        <dc:type
           rdf:resource="http://purl.org/dc/dcmitype/StillImage" />
        <dc:title></dc:title>
      </cc:Work>
    </rdf:RDF>
  </metadata>
  <g
     transform="translate(-0.85633313,0.15481178)"
     id="layer1">
    <path
       id="path10191"
       d="M 33.71932,274.40904 C 21.11593,271.65544 10.504441,263.18066 4.5716706,251.13051 L 1.2193206,244.3215 0.95118058,139.86822 C 0.71062158,46.16019 0.84918158,34.84343 2.2981106,29.8593 4.5030506,22.27455 7.8582006,16.85747 13.78407,11.3145 20.16948,5.3416998 28.07518,1.7389598 37.09141,0.69300984 c 9.87233,-1.14526 260.18253,-1.12327 270.1556,0.0237 4.41522,0.50779996 10.63288,1.89799996 13.81703,3.08933996 8.08293,3.02421 17.42718,11.9030002 21.2586,20.1996502 2.84116,6.15231 2.9026,6.65121 3.20498,26.02257 0.18634,11.93766 0.69356,19.75 1.28229,19.75 0.53571,0 20.19698,-10.85476 43.69172,-24.1217 42.2119,-23.83608 46.77041,-25.96033 52.58023,-24.50216 4.00876,1.00613 8.74864,5.66712 11.2706,11.08299 l 2.34733,5.04087 0.01,100.6849 c 0.006,59.90984 -0.36808,101.67872 -0.92324,103.13891 -1.43869,3.78403 -6.96511,9.58357 -11.18247,11.7351 -8.28427,4.22632 -8.286,4.22562 -55.77915,-22.57296 -23.86727,-13.46724 -43.74537,-24.48592 -44.17377,-24.48592 -0.4284,0 -0.92581,8.6625 -1.10537,19.25 -0.32499,19.16306 -0.3405,19.27964 -3.43583,25.81175 -5.91503,12.4826 -18.41985,21.7107 -32.39063,23.90311 -9.8895,1.55194 -266.8013,1.23866 -274.00001,-0.33412 z m 257.00001,-94.13074 0,-9.5 -16,0 -16,0 0,-11.5 0,-11.5 16,0 16,0 0,-10 0,-10 -16,0 -16,0 0,-11.5 0,-11.5 16,0 16,0 0,-10.5 0,-10.5 -23.57692,0 -23.57693,0 -2.92307,2.92308 -2.92308,2.92307 0,47.15385 0,47.15385 2.92308,2.92307 2.92307,2.92308 23.57693,0 23.57692,0 0,-9.5 z m -171,-2 0,-9.5 -21,0 -21,0 0,-42.5 0,-42.5 -8.5,0 -8.5,0 0,49.68555 c 0,49.637 0.002,49.68781 2.17431,52 2.1699,2.30975 2.22975,2.31445 29.5,2.31445 l 27.32569,0 0,-9.5 z m 32,-42.5 0,-52 -9.5,0 -9.5,0 0,52 0,52 9.5,0 9.5,0 0,-52 z m 49.80305,49.48885 3.69695,-2.51115 11.18572,-44.72318 c 10.84556,-43.36314 11.13869,-44.82228 9.63938,-47.98185 -2.14767,-4.52587 -7.91352,-6.31623 -12.81459,-3.97908 -1.88107,0.89703 -4.03696,2.88543 -4.79087,4.41868 -0.7539,1.53325 -3.56925,12.57523 -6.25634,24.53773 -2.68708,11.9625 -5.12809,21.74827 -5.42445,21.74615 -0.29637,-0.002 -3.46385,-10.87434 -7.03885,-24.16049 -6.11136,-22.7123 -6.67937,-24.26895 -9.5,-26.03496 -1.9865,-1.24376 -4.00128,-1.69029 -5.96382,-1.32174 -3.70979,0.69665 -8.26977,4.97221 -8.97114,8.41158 -0.65692,3.22139 20.47743,87.99913 22.83401,91.59574 2.27227,3.46791 8.30058,3.46907 13.404,0.003 z"
       style="fill:#e12c00;fill-opacity:1" />
  </g>
</svg>
